<svg xmlns="http://www.w3.org/2000/svg" width="80" height="32" viewBox="0 0 90 50" fill="none">
<path d="M0 4.49999C0 2.01471 2.23857 0 4.99998 0H24.9999C27.7613 0 29.9999 2.01471 29.9999 4.49999V25.4999C29.9999 27.9852 27.7613 29.9999 24.9999 29.9999H4.99998C2.23857 29.9999 0 27.9852 0 25.4999V4.49999Z" fill="#1C4154"/>
<path d="M2.63281 7.19323C2.63281 4.67404 4.86067 2.63184 7.60887 2.63184H25.0251C27.7733 2.63184 30.0011 4.67404 30.0011 7.19323V25.4388C30.0011 27.958 27.7733 30.0002 25.0251 30.0002H7.60887C4.86067 30.0002 2.63281 27.958 2.63281 25.4388V7.19323Z" fill="url(#paint0_linear)"/>
<path d="M13.83 15.3797L10.9186 16.3291L13.83 17.2679V18.7658L9.30469 17.0675V15.5907L13.83 13.8924V15.3797Z" fill="white"/>
<path d="M16.8653 21.2975H15.5256V11.2764H16.8653V21.2975Z" fill="white"/>
<path d="M23.0526 15.5907V17.0675L18.5589 18.7658V17.2679L21.4386 16.3291L18.5589 15.3797V13.8924L23.0526 15.5907Z" fill="white"/>
<defs>
<linearGradient id="paint0_linear" x1="31.0538" y1="25.2634" x2="9.31134" y2="-1.52035" gradientUnits="userSpaceOnUse">
<stop stop-color="#99DD11"/>
<stop offset="1" stop-color="#0CC863"/>
</linearGradient>
</defs>
</svg>